<?xml version="1.0" ?><svg enable-background="new 0 0 64 64" version="1.1" viewBox="0 0 64 64" xml:space="preserve" xmlns="http://www.w3.org/2000/svg" xmlns:xlink="http://www.w3.org/1999/xlink"><g id="Grid"/><g id="row_3"><g id="settings"><rect fill="#01579B" height="48" transform="matrix(-0.7071 0.7071 -0.7071 -0.7071 74.2548 24.7574)" width="6" x="29" y="3.8"/><rect fill="#263238" height="48" transform="matrix(-0.7071 0.7071 -0.7071 -0.7071 80.2548 39.2426)" width="6" x="29" y="12.2"/><circle cx="32" cy="32" fill="#FFECB3" r="16"/><path d="M55,32h-1c0-12.1-9.9-22-22-22V9C44.7,9,55,19.3,55,32z" fill="#263238"/><polygon fill="#FFC107" points="36,59 28,59 32,49   "/><polygon fill="#FFC107" points="28,5 36,5 32,9   "/><path d="M17.4,21.1C8,25.8,4.3,37.3,9.1,46.6s16.2,13.1,25.6,8.3s13.1-16.2,8.3-25.6S26.7,16.3,17.4,21.1z     M41.1,30.3c0.7,1.3,1.1,2.7,1.4,4.1l-13.7,2.2l9.8-9.8C39.6,27.8,40.5,29,41.1,30.3z M10.9,45.7c-0.7-1.3-1.1-2.7-1.4-4.1    l13.7-2.2l-9.8,9.8C12.4,48.2,11.5,47,10.9,45.7z M25.5,34.8l-6.3-12.4c2.7-1.2,5.7-1.6,8.5-1.3L25.5,34.8z M23.7,35.7l-12.4-6.3    c1.4-2.4,3.5-4.5,6.1-6.1L23.7,35.7z M26.5,41.2l6.3,12.4c-2.7,1.2-5.7,1.6-8.5,1.3L26.5,41.2z M28.3,40.3l12.4,6.3    c-1.4,2.4-3.5,4.5-6.1,6.1L28.3,40.3z M37.3,25.3l-9.8,9.8l2.2-13.7C32.5,22,35.1,23.4,37.3,25.3z M10.4,31.2l12.4,6.3L9.1,39.7    C8.8,36.8,9.3,33.8,10.4,31.2z M14.7,50.7l9.8-9.8l-2.2,13.7C19.5,54,16.9,52.6,14.7,50.7z M41.6,44.8l-12.4-6.3l13.7-2.2    C43.2,39.2,42.7,42.2,41.6,44.8z" fill="#F44336"/><path d="M39.9,9.4c-6.4,1.7-10.2,8.3-8.5,14.7c1.7,6.4,8.3,10.2,14.7,8.5c6.4-1.7,10.2-8.3,8.5-14.7    C52.9,11.5,46.3,7.7,39.9,9.4z M43.8,23.9c-1.6,0.4-3.2-0.5-3.7-2.1c-0.4-1.6,0.5-3.2,2.1-3.7c1.6-0.4,3.2,0.5,3.7,2.1    C46.3,21.8,45.4,23.5,43.8,23.9z M44.6,16.3C44,16.1,43.3,16,42.7,16l-1.3-4.9c2-0.3,4,0,5.7,0.8L44.6,16.3z M40.8,16.5    c-0.6,0.3-1.1,0.7-1.5,1.2l-4.4-2.5c1.1-1.6,2.7-2.8,4.6-3.5L40.8,16.5z M38.3,19.4C38.1,20,38,20.7,38,21.3l-4.9,1.3    c-0.3-2,0-4,0.8-5.7L38.3,19.4z M38.5,23.2c0.3,0.6,0.7,1.1,1.2,1.5l-2.5,4.4c-1.6-1.1-2.8-2.7-3.5-4.6L38.5,23.2z M41.4,25.7    c0.6,0.2,1.2,0.3,1.9,0.3l1.3,4.9c-2,0.3-4,0-5.7-0.8L41.4,25.7z M45.2,25.5c0.6-0.3,1.1-0.7,1.5-1.2l4.4,2.5    c-1.1,1.6-2.7,2.8-4.6,3.5L45.2,25.5z M47.7,22.6c0.2-0.6,0.3-1.2,0.3-1.9l4.9-1.3c0.3,2,0,4-0.8,5.7L47.7,22.6z M47.5,18.8    c-0.3-0.6-0.7-1.1-1.2-1.5l2.5-4.4c1.6,1.1,2.8,2.7,3.5,4.6L47.5,18.8z" fill="#01579B"/></g></g><g id="row_2"/><g id="row_1"/></svg>