<?xml version="1.0" ?><!DOCTYPE svg  PUBLIC '-//W3C//DTD SVG 1.1//EN'  'http://www.w3.org/Graphics/SVG/1.1/DTD/svg11.dtd'><svg enable-background="new 0 0 32 32" version="1.1" viewBox="0 0 32 32" xml:space="preserve" xmlns="http://www.w3.org/2000/svg" xmlns:xlink="http://www.w3.org/1999/xlink"><g id="Layer_2"/><g id="Layer_3"/><g id="Layer_4"/><g id="Layer_5"><g><g><path d="M24,23h-3c-0.5522,0-1-0.4473-1-1s0.4478-1,1-1h3c2.7568,0,5-2.2432,5-5s-2.2432-5-5-5     c-0.0444,0-0.0879-0.002-0.1289,0.002c-0.5,0.0713-0.9668-0.2578-1.0903-0.7461C21.9937,7.1611,19.2056,5,16,5     c-3.8599,0-7,3.1406-7,7c0,0.3027-0.1367,0.6387-0.3721,0.8281c-0.2358,0.1895-0.5464,0.3145-0.8398,0.249     C7.5527,13.0264,7.2876,13,7,13c-2.2056,0-4,1.7939-4,4s1.7944,4,4,4h4c0.5522,0,1,0.4473,1,1s-0.4478,1-1,1H7     c-3.3086,0-6-2.6914-6-6c0-3.3301,2.7148-6.0107,6.0645-6C7.5991,6.4648,11.4023,3,16,3c3.8584,0,7.2476,2.4385,8.4946,6.0176     C28.1245,9.2715,31,12.3066,31,16C31,19.8594,27.8599,23,24,23z" fill="#0181B0"/></g><g><path d="M16,29c-0.1782,0-0.3564-0.0479-0.5146-0.1426l-2-1.2002C11.3032,26.3486,10,24.2334,10,22v-5     c0-0.4766,0.3364-0.8867,0.8037-0.9805l5-1c0.1299-0.0254,0.2627-0.0254,0.3926,0l5,1C21.6636,16.1133,22,16.5234,22,17v5     c0,2.2334-1.3032,4.3486-3.4858,5.6572l-1.9995,1.2002C16.3564,28.9521,16.1782,29,16,29z M12,17.8193V22     c0,1.5244,0.9399,2.998,2.5142,3.9424L16,26.834l1.4854-0.8916C19.0601,24.998,20,23.5244,20,22v-4.1807l-4-0.7998L12,17.8193z" fill="#F5D803"/></g></g></g><g id="Layer_6"/><g id="Layer_7"/><g id="Layer_8"/><g id="Layer_9"/><g id="Layer_10"/><g id="Layer_11"/><g id="Layer_12"/><g id="Layer_13"/><g id="Layer_14"/><g id="Layer_15"/><g id="Layer_16"/><g id="Layer_17"/><g id="Layer_18"/><g id="Layer_19"/><g id="Layer_20"/><g id="Layer_21"/><g id="Layer_22"/><g id="Layer_23"/><g id="Layer_24"/><g id="Layer_25"/><g id="Layer_26"/></svg>