<?xml version="1.0" ?><svg xmlns="http://www.w3.org/2000/svg" xmlns:xlink="http://www.w3.org/1999/xlink" version="1.1" viewBox="0 0 32 32" style="enable-background:new 0 0 32 32;" xml:space="preserve"><style type="text/css">
	.st0{display:none;}
	.st1{display:inline;}
	.st2{fill:#CDF6F9;}
	.st3{fill:#FFFFFF;}
	.st4{fill:#1A83A8;}
</style><g id="Layer_1" class="st0"/><g id="Layer_2"/><g id="Layer_3"/><g id="Layer_4"/><g id="Layer_5"/><g id="Layer_6"/><g id="Layer_7"/><g id="Layer_8"/><g id="Layer_9"/><g id="Layer_10"><path class="st2" d="M9.027,22.964c-3.411-3.425-5.398-7.244-5.961-11.456C2.735,9.032,3.67,6.551,5.437,4.784l0.822-0.822   c1.246-1.246,3.023-1.245,4.119-0.149l2.337,2.337c1.096,1.096,1.096,2.874,0,3.97l-1.973,1.973   c-0.361,0.361-0.5,0.902-0.328,1.383c1.415,3.95,4.151,6.686,8.101,8.101c0.481,0.172,1.022,0.033,1.383-0.328l1.973-1.973   c1.096-1.096,2.874-1.096,3.97,0l2.337,2.337c1.096,1.096,1.096,2.874,0,3.97l-0.97,0.97c-1.767,1.767-4.248,2.703-6.726,2.372   C16.27,28.362,12.452,26.375,9.027,22.964z"/><path class="st4" d="M28.814,20.977l-2.337-2.336c-1.4-1.4-3.841-1.4-5.243,0l-1.972,1.973c-0.121,0.122-0.303,0.168-0.443,0.117   c-3.692-1.322-6.235-3.865-7.558-7.557c-0.052-0.144-0.005-0.322,0.117-0.443l1.973-1.973c0.7-0.7,1.086-1.631,1.086-2.622   s-0.386-1.921-1.086-2.622l-2.337-2.336C10.301,2.464,9.359,2.078,8.353,2.11c-1.001,0.025-1.97,0.457-2.729,1.216L4.802,4.148   c-2.003,2.002-2.985,4.798-2.628,7.48c0.587,4.392,2.678,8.42,6.215,11.972c0.001,0,0.002,0.001,0.003,0.002   c3.552,3.537,7.58,5.628,11.971,6.215c0.364,0.049,0.73,0.073,1.097,0.073c2.329,0,4.653-0.969,6.385-2.7l0.971-0.97   c0.7-0.7,1.086-1.631,1.086-2.622C29.9,22.607,29.515,21.676,28.814,20.977z M27.541,24.946l-0.971,0.971   c-1.61,1.609-3.842,2.398-5.97,2.116c-3.991-0.534-7.672-2.454-10.938-5.706c-3.251-3.266-5.171-6.946-5.704-10.937   C3.674,9.26,4.465,7.029,6.074,5.421l0.822-0.822C7.327,4.167,7.86,3.923,8.397,3.909C8.874,3.897,9.38,4.088,9.741,4.45   l2.337,2.336c0.36,0.36,0.56,0.84,0.56,1.349s-0.199,0.988-0.56,1.349l-1.972,1.973c-0.613,0.612-0.825,1.524-0.54,2.323   c1.514,4.224,4.422,7.132,8.646,8.645c0.796,0.286,1.708,0.074,2.322-0.539l1.973-1.973c0.72-0.72,1.977-0.721,2.696,0l2.337,2.337   c0.36,0.36,0.56,0.839,0.56,1.348C28.101,24.107,27.901,24.586,27.541,24.946z"/><path class="st4" d="M17.068,7.482c0.056,0.011,0.111,0.016,0.167,0.016c0.425,0,0.802-0.302,0.884-0.734l0.382-2.029   c0.092-0.489-0.229-0.959-0.719-1.051c-0.479-0.091-0.958,0.229-1.051,0.718L16.35,6.431C16.258,6.92,16.579,7.39,17.068,7.482z"/><path class="st4" d="M22.52,10.372c0.23,0,0.461-0.088,0.637-0.264l1.441-1.441c0.352-0.351,0.352-0.921,0-1.272   c-0.352-0.352-0.922-0.352-1.273,0l-1.441,1.441c-0.352,0.351-0.352,0.921,0,1.272C22.059,10.284,22.289,10.372,22.52,10.372z"/><path class="st4" d="M24.509,14.924c0.082,0.432,0.46,0.733,0.884,0.733c0.056,0,0.111-0.005,0.168-0.016l2.029-0.383   c0.488-0.092,0.81-0.563,0.718-1.051c-0.093-0.489-0.563-0.81-1.052-0.717l-2.029,0.383C24.738,13.965,24.417,14.436,24.509,14.924   z"/></g><g id="Layer_11"/><g id="Layer_12"/><g id="Layer_13"/><g id="Layer_14"/><g id="Layer_15"/><g id="Layer_16"/><g id="Layer_17"/><g id="Layer_18"/><g id="Layer_19"/><g id="Layer_20"/><g id="Layer_21"/><g id="Layer_22"/><g id="Layer_23"/><g id="Layer_24"/><g id="Layer_25"/><g id="Layer_26"/></svg>