<?xml version="1.0" ?><svg viewBox="0 0 32 32" xmlns="http://www.w3.org/2000/svg"><title/><g data-name="91-Telephone" id="_91-Telephone"><path d="M27,0H5A4.82,4.82,0,0,0,0,5v7a1,1,0,0,0,1,1H11a1,1,0,0,0,1-1V7h8v5a1,1,0,0,0,1,1H31a1,1,0,0,0,1-1V5A4.82,4.82,0,0,0,27,0Zm3,11H22V7a2,2,0,0,0-2-2H12a2,2,0,0,0-2,2v4H2V5A2.85,2.85,0,0,1,5,2H27a2.85,2.85,0,0,1,3,3Z"/><path d="M28,29a1,1,0,0,1-1,1H5a1,1,0,0,1-1-1V15H2V29a3,3,0,0,0,3,3H27a3,3,0,0,0,3-3V15H28Z"/><rect height="4" rx="1" ry="1" width="4" x="7" y="16"/><rect height="4" rx="1" ry="1" width="4" x="14" y="16"/><rect height="4" rx="1" ry="1" width="4" x="21" y="16"/><rect height="4" rx="1" ry="1" width="4" x="7" y="23"/><rect height="4" rx="1" ry="1" width="4" x="14" y="23"/><rect height="4" rx="1" ry="1" width="4" x="21" y="23"/></g></svg>