<?xml version="1.0" ?><!DOCTYPE svg  PUBLIC '-//W3C//DTD SVG 1.1//EN'  'http://www.w3.org/Graphics/SVG/1.1/DTD/svg11.dtd'><svg enable-background="new 0 0 512 512" height="512px" id="Layer_1" version="1.1" viewBox="0 0 512 512" width="512px" xml:space="preserve" xmlns="http://www.w3.org/2000/svg" xmlns:xlink="http://www.w3.org/1999/xlink"><path stroke="#fff" d="M319.313,305.732l16.219,24.276c0,0,2.854,0.791,4.579-1.19l8.675-9.061c0,0,1.146-1.343-0.569-4.479l-21.603-15.525  C326.609,299.757,319.6,296.923,319.313,305.732z"/><path d="M349.664,238.864l27.82,5.75c0,0,2.594-1.5,2.506-4.178l0.229-12.801c0,0-0.07-1.796-3.396-2.811l-25.876,4.456  C350.949,229.28,344.014,232.315,349.664,238.864z"/><path d="M326.025,170.023l23.017-17.295c0,0,0.715-3-1.221-4.761l-8.814-8.907c0,0-1.304-1.174-4.282,0.666l-14.528,22.781  C320.192,162.506,317.588,169.867,326.025,170.023z"/><path d="M262.384,138.139l4.572-29.208c0,0-1.519-2.65-4.08-2.466l-12.271,0.191c0,0-1.717,0.131-2.577,3.626l5.131,26.836  C253.159,137.119,256.3,144.25,262.384,138.139z"/><path d="M195.781,162.943l-15.909-24.498c0,0-2.849-0.834-4.593,1.132l-8.788,8.938c0,0-1.166,1.326,0.517,4.482l21.403,15.818  C188.411,168.816,195.383,171.746,195.781,162.943z"/><path d="M165.574,228.809l-28.008-4.63c0,0-2.533,1.601-2.346,4.272l0.238,12.803c0,0,0.139,1.791,3.494,2.671l25.696-5.494  C164.648,238.432,171.462,235.127,165.574,228.809z"/><path d="M188.924,298.76l-23.445,16.648c0,0-0.793,2.978,1.094,4.797l8.578,9.146c0,0,1.282,1.211,4.301-0.545l15.121-22.363  C194.573,306.443,197.363,299.16,188.924,298.76z"/><path d="M214.218,344.736l4.816-2.735h76.675l3.861,2.735c0,0,9.441,1.438,6.438,12.639c0,0-0.906,3.98-5.288,4.78l0.089,2.786  c0,0,6.431,2.479,5.787,11.738c0,0-1.203,6.066-7.406,6.37c0,0-6.194,12.841-23.647,15.822c0,0-1.332,12.805-19.168,13.217  c0,0-13.255,0.712-17.262-13.124c0,0-12.112-0.992-23.939-15.813c0,0-7.054-1.596-6.863-10.354c0,0-0.095-5.273,5.433-7.668v-2.781  c0,0-7.248-3.281-5.051-11.844C208.688,350.51,209.83,345.634,214.218,344.736z"/><path d="M240,327.25L227.25,327c0,0-2.543-32.218-16.66-48.141c0,0-12.132-14.773-15.579-31.192  c0,0-11.312-51.994,38.277-75.678c0,0,44.636-20.104,76.108,23.282c0,0,26.511,35.229,0.946,74.042c0,0-20.475,37.99-24.095,57.688  h-12.5c0,0,0.741-30.424,7.984-59.285c0,0,12.59-38.316,13.543-43.535l-24.221,6.122l-13.566-10.747L243.78,231.25l-23.846-7.909  c0,0,13.543,45.772,14.115,47.765C234.053,271.1,238.899,306.158,240,327.25z" fill="none"/><path d="M239.25,326.75c0,0-1-45.75-10.083-70.917l-9.231-32.494l23.846,7.909l13.708-11.694l13.568,10.747l24.221-6.122  c0,0-11.78,39.323-15.446,50.657c0,0-5.333,31.413-5.535,52.105L239.25,326.75z"/><path d="M226.916,327.34h-9.083c0,0-3,0.996-4.5-4.504c0,0,2-15.166-9.333-27.5c0,0-11.167-18.496-13.5-20.996  c0,0-37.667-62.167,28-111.167c0,0,37-22.999,75.667,0.334c0,0,32.75,13.083,39.25,56.583c0,0,6.5,37-13.25,59  c0,0-19.121,25.406-19.686,42.703c0,0-0.229,4.5-5.146,5.773h-9.42c0,0,10.002-34.977,27.002-62.227c0,0,17.918-28.172,0.584-60.172  c0,0-22.667-58-88.667-29c0,0-36.979,19.678-30.156,71.839c0,0,6.489,22.828,20.156,38.162  C214.833,286.168,224.666,300.178,226.916,327.34z"/></svg>