<?xml version="1.0" ?><svg height="64" id="svg8" version="1.1" viewBox="0 0 16.933333 16.933334" width="64" xmlns="http://www.w3.org/2000/svg" xmlns:cc="http://creativecommons.org/ns#" xmlns:dc="http://purl.org/dc/elements/1.1/" xmlns:inkscape="http://www.inkscape.org/namespaces/inkscape" xmlns:rdf="http://www.w3.org/1999/02/22-rdf-syntax-ns#" xmlns:sodipodi="http://sodipodi.sourceforge.net/DTD/sodipodi-0.dtd" xmlns:svg="http://www.w3.org/2000/svg"><defs id="defs2"/><g id="layer1"><path d="M 0.25334905,2.1765264e-4 C 0.07882089,0.00717326 -0.05684584,0.19937531 0.02391036,0.37538374 L 0.51224271,1.4414549 0.17841975,2.4940902 C 0.13488051,2.630369 0.20730691,2.7767221 0.34223072,2.8242983 L 2.8247159,3.6898674 C 3.074954,3.7775939 3.2844833,3.4832442 3.1197825,3.2754278 L 2.2878088,2.2191751 2.682092,1.402698 C 2.7455092,1.2705839 2.6894092,1.1121224 2.5570375,1.0492358 L 0.37736996,0.02553878 C 0.33551578,0.00576997 0.29362471,-0.00138749 0.25334905,2.1765264e-4 Z m 16.40744995,0 C 16.62523,0.00154763 16.589748,0.00994468 16.556931,0.02553878 L 14.377264,1.0492358 C 14.244894,1.112122 14.188793,1.2705839 14.25221,1.402698 l 0.3948,0.8164771 -0.831974,1.0562527 c -0.164702,0.2078164 0.04432,0.5021661 0.294549,0.4144396 L 16.592071,2.8242983 C 16.726996,2.7767223 16.799939,2.630369 16.756398,2.4940902 L 16.422058,1.4414549 16.910391,0.37538374 C 16.97093,0.24404125 16.907888,0.07299879 16.7657,0.01778741 16.731811,0.00468718 16.696369,-0.00111202 16.660799,2.1765264e-4 Z M 8.4645672,0.00435171 C 8.3073055,0.01136746 8.2020261,0.12629736 8.2015393,0.26789814 V 0.79705801 C 8.2009572,0.94398972 8.3202165,1.0632511 8.4671507,1.0626715 8.6133215,1.0621688 8.7312713,0.94322622 8.7306953,0.79705801 V 0.26789814 C 8.7301949,0.12249196 8.6166928,0.00485184 8.4645672,0.00435171 Z M 7.1313422,1.5871805 C 6.5797175,1.5922803 6.0559733,1.8859758 5.7702127,2.3809203 5.623989,2.6341836 5.5543666,2.9154406 5.5578267,3.19378 4.8959948,3.2891886 4.3303222,3.7369803 4.0902459,4.3694039 4.0293546,4.5298092 3.9924106,4.6949698 3.9775937,4.8608405 2.9304711,5.1788361 2.25721,6.212579 2.4009779,7.3045875 2.4961039,8.027132 2.9304225,8.6333767 3.530085,8.9711309 3.1705764,9.4702327 3.0783652,10.124145 3.3011629,10.711054 c 0.2320279,0.611223 0.7682877,1.049389 1.4014365,1.164255 -0.00436,0.213413 0.034402,0.430056 0.1204036,0.63768 0.2916795,0.703608 1.0744537,1.149132 1.907855,0.917244 0.090623,0.115107 0.1709605,0.222415 0.2361564,0.327108 h -0.089398 c -0.1461709,5.03e-4 -0.2646376,0.119444 -0.2640613,0.265613 5.027e-4,0.145406 0.1186529,0.263047 0.2640613,0.263547 v 0.79529 c 0,0.342236 0.2224301,0.636096 0.5291559,0.746198 v 0.310055 c 0,0.435136 0.3575577,0.795289 0.7927,0.795289 h 0.529673 c 0.4351429,0 0.7947672,-0.360153 0.7947672,-0.795289 v -0.310055 c 0.306725,-0.110102 0.5291555,-0.403963 0.5291555,-0.746198 v -0.79529 c 0.145409,-5.03e-4 0.263044,-0.118141 0.263545,-0.263547 5.82e-4,-0.146169 -0.117374,-0.265111 -0.263545,-0.265613 H 9.970387 c 0.064999,-0.104789 0.145123,-0.212913 0.23564,-0.328141 0.919092,0.258472 1.662149,-0.308461 1.905789,-0.916211 0.08601,-0.207624 0.124467,-0.424267 0.119886,-0.63768 0.633367,-0.114725 1.169347,-0.552871 1.401436,-1.164255 0.222829,-0.58699 0.130708,-1.2407951 -0.228922,-1.7399231 C 14.004083,8.63342 14.438176,8.02729 14.533324,7.3045875 14.677092,6.212579 14.004347,5.1788361 12.957225,4.8608405 12.942408,4.6949698 12.904946,4.5298092 12.844056,4.3694039 12.603951,3.7369086 12.038405,3.2891182 11.376475,3.19378 11.379936,2.9154406 11.310829,2.6341836 11.164606,2.3809203 10.806003,1.7598136 10.071986,1.4553005 9.3792213,1.6409233 8.9955814,1.7437177 8.6757379,1.9834478 8.466634,2.2987558 8.2580649,1.9834478 7.93872,1.7437177 7.5550805,1.6409233 7.4143617,1.6032186 7.2719527,1.585881 7.1313422,1.5871805 Z m 3.5759358,1.0593532 c 0.240132,0.4159159 0.170104,0.9378311 -0.169495,1.277425 -0.102569,0.1031899 -0.102569,0.2699096 0,0.373099 0.103416,0.1038704 0.271231,0.1038704 0.374647,0 0.168313,-0.1683117 0.292237,-0.367582 0.369479,-0.5813523 0.482129,0.061711 0.893857,0.3821982 1.06813,0.8412814 0.185027,0.4874088 0.0679,1.037451 -0.300751,1.4060976 -0.102572,0.1031899 -0.102572,0.2699091 0,0.3730993 0.127955,0.1209479 0.28877,0.086934 0.373096,0 C 12.68169,6.07688 12.852126,5.7524714 12.924669,5.40757 c 0.733411,0.2831047 1.188381,1.0331756 1.083633,1.8288054 -0.112912,0.8576393 -0.840234,1.4939463 -1.705288,1.4939465 -0.146169,5.027e-4 -0.264121,0.1199624 -0.263545,0.2661301 5.03e-4,0.1454058 0.118138,0.2630459 0.263545,0.2635465 0.204355,0 0.403352,-0.02776 0.592716,-0.079581 0.322932,0.3664186 0.41843,0.8819505 0.243392,1.3430535 -0.166725,0.439198 -0.551011,0.752442 -1.006119,0.833014 -0.117393,-0.37038 -0.48658,-0.764817 -0.772548,-0.854718 -0.0896,-0.729735 -0.467834,-1.4286634 -1.054694,-1.9120036 0.129153,-0.071301 0.244928,-0.1665483 0.340541,-0.2816328 0.461111,0.2717225 1.06033,0.2020916 1.44691,-0.1844826 0.103361,-0.1029774 0.103865,-0.2705592 0.001,-0.3741327 -0.103527,-0.1031727 -0.271019,-0.1025811 -0.37413,0.00103 -0.236159,0.2361553 -0.605768,0.2611877 -0.87073,0.057877 C 10.584395,7.6051138 10.511317,7.2408674 10.678307,6.9516382 10.751466,6.825551 10.709076,6.6640003 10.583227,6.5904244 10.456531,6.5172404 10.294446,6.5607414 10.2215,6.6875744 9.9904689,7.0877249 10.017417,7.5759066 10.26181,7.9438124 10.163797,8.0664801 9.9954114,8.2106217 9.7058078,8.2099451 9.3386593,8.0373551 8.9221311,7.9376157 8.4671507,7.9376157 c -0.4550222,0 -0.8714825,0.099734 -1.2386589,0.2723313 C 6.9111792,8.2131458 6.7324303,8.0274527 6.6729815,7.9427832 6.9170666,7.5748951 6.9445605,7.0872512 6.7138051,6.6875789 6.6408588,6.5607456 6.4792901,6.5172436 6.3525943,6.5904283 6.2257596,6.6633733 6.1817412,6.8254639 6.2549277,6.9521588 6.4219171,7.2413881 6.3514294,7.6051159 6.0864659,7.8084263 5.821503,8.0117364 5.4513775,7.9867045 5.2152192,7.7505494 5.1121071,7.6469288 4.944648,7.6463372 4.8410894,7.7495176 4.7216948,7.8777452 4.7538307,8.0392935 4.8405602,8.124167 5.2271406,8.5107415 5.8258418,8.5803718 6.2869541,8.3086496 6.3826209,8.4237653 6.4987837,8.5189911 6.6280115,8.5902824 6.0417887,9.0733794 5.6636233,9.7716337 5.5738337,10.500736 5.2434277,10.62124 4.9025433,11.046847 4.80077,11.356487 4.3458785,11.275771 3.9623471,10.96251 3.7956839,10.523473 3.6206325,10.062342 3.716093,9.5468437 4.039075,9.1804198 4.2284392,9.2322404 4.4269225,9.2600004 4.6312748,9.2600004 4.7766831,9.2594977 4.8943187,9.1418599 4.8948193,8.9964539 4.8954013,8.8502856 4.7774459,8.7308262 4.6312748,8.7303238 3.7662218,8.7303238 3.0394159,8.0940168 2.926504,7.2363772 2.8217558,6.440748 3.276209,5.6906763 4.00962,5.4075718 c 0.072542,0.3449014 0.2434935,0.66931 0.5028016,0.9286137 0.1031915,0.1025689 0.2699047,0.1025689 0.3730962,0 0.1025705,-0.1031899 0.1025705,-0.2699094 0,-0.3730992 C 4.5168654,5.5944399 4.3997405,5.044397 4.584767,4.5569887 4.7590405,4.0979052 5.1707682,3.777419 5.6528971,3.7157073 c 0.07724,0.2137703 0.2006474,0.4130402 0.3689623,0.5813522 0.1247893,0.1175145 0.2898888,0.087022 0.3730962,0 0.1025708,-0.1031893 0.1025708,-0.2699088 0,-0.3730989 C 6.0553565,3.5843666 5.9868775,3.0624515 6.2270105,2.6465355 6.4833945,2.2037327 6.9872014,2.0386583 7.4186447,2.1525152 7.8825534,2.2768153 8.2015269,2.6959538 8.2015269,3.1762121 8.2099569,3.3741312 8.3747633,3.442718 8.4671382,3.4397586 8.6727232,3.4328686 8.736939,3.254877 8.7306828,3.1762121 c 0,-0.4802583 0.3215648,-0.8993968 0.7854658,-1.0236969 0.115975,-0.031076 0.2331191,-0.04158 0.3477815,-0.03359 0.3439629,0.023976 0.6632479,0.215671 0.8433479,0.5276085 z M 9.4195279,3.7715151 C 9.1884463,4.1717545 9.2152989,4.6598203 9.4598347,5.027753 9.3462276,5.179945 9.1717202,5.2771837 8.9797705,5.2918163 8.8347289,5.3030265 8.7260778,5.4288594 8.7363794,5.5739659 8.7473093,5.72 8.8745928,5.8297803 9.0205941,5.8183922 9.3444973,5.7936992 9.6404868,5.6375751 9.8442996,5.3920672 10.305643,5.664326 10.906096,5.5963099 11.292761,5.2096517 c 0.103175,-0.1035581 0.102529,-0.2710236 -0.001,-0.3741323 -0.103012,-0.1033579 -0.270039,-0.1038 -0.373613,-0.00103 -0.236158,0.236155 -0.605767,0.2611874 -0.87073,0.057877 C 9.7823907,4.6890527 9.7093516,4.32481 9.8763402,4.0355802 9.9495,3.9094923 9.9071043,3.7479427 9.7812575,3.6743667 9.7454202,3.6542057 9.7087478,3.643237 9.6732551,3.6397428 9.5667798,3.6292645 9.4688714,3.6868488 9.4195279,3.7715151 Z M 7.320989,3.6423348 c 0.075474,0.00985 0.148332,0.051493 0.1927493,0.1297061 0.2310816,0.4002396 0.204229,0.8883052 -0.040307,1.2562379 C 7.5869459,5.1800876 7.7610523,5.2756438 7.952979,5.2902751 8.0990151,5.301203 8.2082742,5.4284927 8.1968868,5.5744916 8.1859584,5.7205262 8.0586754,5.8297888 7.9126721,5.8184012 7.5886488,5.7937014 7.2922704,5.6382583 7.0884498,5.3925929 6.6274114,5.6639363 6.0284829,5.594015 5.6420559,5.2075938 5.5387038,5.1046154 5.5382599,4.9375504 5.6410241,4.833978 5.7445836,4.7308423 5.9120429,4.730887 6.015154,4.8345071 6.2513128,5.0706629 6.6214386,5.0956956 6.886401,4.892384 7.1513631,4.6890744 7.2239188,4.325346 7.0569297,4.0361165 6.9837696,3.9100283 7.0266815,3.7484779 7.1525283,3.6749 7.180889,3.658532 7.2125338,3.647701 7.2455449,3.642861 c 0.024758,-0.00363 0.050287,-0.00381 0.075445,-5.276e-4 l 9e-7,-1.5e-6 M 1.3865902,4.1017233 C 1.2792124,4.0915079 1.1833201,4.150994 1.1354478,4.2324631 1.0622634,4.3586834 1.1049781,4.5202306 1.231047,4.5936767 L 1.6899246,4.8592901 C 1.8166582,4.9321453 1.9788741,4.8883984 2.0516523,4.761623 2.1248368,4.6354025 2.0816055,4.4738553 1.9555361,4.4004092 L 1.4966587,4.136863 C 1.459771,4.116168 1.4223824,4.105128 1.3865902,4.1017233 Z m 14.0510518,0.035146 -0.458877,0.2635462 c -0.126069,0.073447 -0.168783,0.2349938 -0.0956,0.3612138 0.07278,0.1267764 0.234477,0.1705228 0.361211,0.097667 l 0.457327,-0.2656134 c 0.126778,-0.072777 0.17052,-0.2344827 0.09767,-0.3612136 -0.04984,-0.079625 -0.117896,-0.1172933 -0.184482,-0.128156 -0.06659,-0.010861 -0.131701,0.00508 -0.177249,0.032556 z M 0.26471764,8.2011621 c -0.14635942,0.00412 -0.26049434,0.121729 -0.25992717,0.2656133 5.0019e-4,0.1454058 0.1181362,0.2630459 0.26354445,0.2635465 H 0.79749081 C 0.94366125,8.7309037 1.0625997,8.6129437 1.0631022,8.4667754 1.0636817,8.3198437 0.94442481,8.2005824 0.79749081,8.2011621 Z m 15.86847636,0 c -0.147124,0.00309 -0.262566,0.1209774 -0.261995,0.2656133 5.03e-4,0.1461683 0.119441,0.2641228 0.265612,0.2635465 h 0.527605 C 16.810586,8.730904 16.929525,8.6129437 16.930028,8.4667754 16.93061,8.3198437 16.811352,8.2011621 16.664416,8.2011621 Z M 8.4671507,8.4667754 c 1.4425864,0 2.3848183,1.200268 2.3848183,2.3693346 0,0.856415 -0.349992,1.378324 -0.736374,1.862395 -0.2736536,0.34284 -0.5877314,0.665204 -0.7477424,1.058836 H 7.5664488 C 7.4064302,13.363737 7.0923453,13.041328 6.818706,12.698505 6.4323251,12.214434 6.0823319,11.692525 6.0823319,10.83611 c 0,-1.169069 0.9422226,-2.3693346 2.3848188,-2.3693346 z m 0.249592,0.7947733 c -0.079937,0.00449 -0.1552686,0.04551 -0.2025673,0.1136868 L 7.4553467,10.910006 c -0.083554,0.120701 -0.052509,0.286191 0.068728,0.368965 l 0.5544768,0.38085 -0.1384898,1.003544 c -0.036654,0.261723 0.2909389,0.409874 0.4630114,0.209287 L 9.7269966,11.325479 C 9.8187079,11.217602 9.80902,11.057548 9.7052928,10.961165 L 9.0846716,10.388598 8.9947565,9.4982239 C 8.9831627,9.3883418 8.90437,9.2973278 8.7973564,9.2698168 8.770565,9.2629377 8.7433884,9.2600591 8.7167427,9.2615487 Z M 5.5666116,11.132212 c 0.072888,0.805082 0.4345393,1.379681 0.7854657,1.829322 -0.4432969,0.02743 -0.8645812,-0.226348 -1.0407419,-0.651631 -0.1726221,-0.41674 -0.0625,-0.882715 0.2552762,-1.177691 z m 5.8010784,0 c 0.317812,0.294974 0.428425,0.760932 0.255793,1.177691 -0.176414,0.425893 -0.598815,0.67991 -1.04281,0.651631 0.35102,-0.449612 0.713831,-1.024352 0.787017,-1.829322 z m 3.515476,1.037133 c -0.07319,0.12622 -0.03047,0.287764 0.0956,0.361213 l 0.458877,0.265614 c 0.126736,0.07286 0.288952,0.02912 0.361728,-0.09767 0.07286,-0.126733 0.02912,-0.288438 -0.09767,-0.361214 l -0.457327,-0.263547 c -0.03654,-0.02072 -0.07368,-0.03183 -0.109551,-0.03514 -0.107609,-0.0099 -0.205158,0.05022 -0.251657,0.130742 z m -13.1932414,-0.0956 -0.4588774,0.263546 c -0.1260695,0.07345 -0.1687843,0.234993 -0.095599,0.361214 0.072776,0.126778 0.2344763,0.170514 0.3612109,0.09767 l 0.4588774,-0.265614 c 0.1260695,-0.07345 0.1693007,-0.234992 0.096116,-0.361213 -0.04921,-0.07709 -0.113666,-0.115639 -0.178797,-0.127641 -0.06513,-0.012 -0.130945,0.0025 -0.1829309,0.03204 z m 2.7108904,2.904178 -0.2635443,0.458881 c -0.072855,0.126732 -0.029111,0.288952 0.097666,0.36173 0.1267346,0.07286 0.2884336,0.02912 0.361211,-0.09767 l 0.2635447,-0.457328 c 0.072855,-0.126745 0.029111,-0.288437 -0.097666,-0.361213 -0.0352,-0.02016 -0.071389,-0.03109 -0.1064515,-0.03462 -0.1051832,-0.01061 -0.2029026,0.04649 -0.2547599,0.130222 z m 7.769393,-0.09558 c -0.126068,0.07345 -0.168784,0.234993 -0.0956,0.361214 l 0.263544,0.45733 c 0.07278,0.126778 0.234477,0.170515 0.361212,0.09767 0.12678,-0.07278 0.170518,-0.234998 0.09767,-0.361731 l -0.265612,-0.458881 c -0.04776,-0.0789 -0.115455,-0.116602 -0.182415,-0.12764 -0.06696,-0.01103 -0.133187,0.0046 -0.178799,0.03204 z" id="path862" style="opacity:1;fill:#fff;fill-opacity:1;stroke:none;stroke-width:0.5291667;stroke-linecap:round;stroke-linejoin:round;stroke-miterlimit:4;stroke-dasharray:none;stroke-dashoffset:0;stroke-opacity:1"/></g></svg>