<?xml version="1.0" ?><svg height="128" viewBox="0 0 128 128" width="128" xmlns="http://www.w3.org/2000/svg"><defs><style>.cls-1{fill:#ffc960;}.cls-2,.cls-5{fill:none;stroke-linecap:round;stroke-linejoin:round;stroke-width:3px;}.cls-2{stroke:#252d32;}.cls-3{fill:#252d32;}.cls-4{fill:#79c651;}.cls-5{stroke:#ffc960;}</style></defs><title/><g id="Icons"><path class="cls-1" d="M59,98a8,8,0,1,1,5-14.24V49h38a41.5,41.5,0,1,0-38.5,57H64V96.24A8,8,0,0,1,59,98Zm6-66a5,5,0,1,1-5,5A5,5,0,0,1,65,32ZM43,73A10,10,0,1,1,53,63,10,10,0,0,1,43,73Z"/><line class="cls-2" x1="72.65" x2="71.04" y1="13.8" y2="22.66"/><path class="cls-3" d="M76.37,7.36a2.5,2.5,0,1,1-2-2.9A2.5,2.5,0,0,1,76.37,7.36Z"/><line class="cls-2" x1="54.12" x2="55.73" y1="115.63" y2="106.77"/><path class="cls-3" d="M55.33,123a2.5,2.5,0,1,0-2.91,2A2.5,2.5,0,0,0,55.33,123Z"/><rect class="cls-2" height="74" width="58" x="64.5" y="49.5"/><rect class="cls-4" height="7" width="9" x="74" y="107"/><rect class="cls-4" height="17" width="9" x="89" y="97"/><rect class="cls-4" height="13" width="9" x="104" y="101"/><path class="cls-5" d="M99,61.51A12.46,12.46,0,0,1,105.41,81"/><path class="cls-4" d="M95,59.38a14.09,14.09,0,1,0,8.58,25.26L95,73.47Z"/><circle class="cls-2" cx="43" cy="63" r="10.5"/><path class="cls-2" d="M58.75,98a8,8,0,0,1,0-16"/><circle class="cls-2" cx="65" cy="37" r="4.5"/><path class="cls-2" d="M59.43,106.31a42,42,0,1,1,43-57.61"/><line class="cls-2" x1="51.46" x2="53.36" y1="14.13" y2="22.93"/><path class="cls-3" d="M52.43,6.76a2.5,2.5,0,1,1-3-1.91A2.5,2.5,0,0,1,52.43,6.76Z"/><line class="cls-2" x1="32.64" x2="37.76" y1="22.56" y2="29.96"/><path class="cls-3" d="M30.42,15.68a2.5,2.5,0,1,1-3.48-.63A2.51,2.51,0,0,1,30.42,15.68Z"/><line class="cls-2" x1="12.18" x2="21.04" y1="56.65" y2="58.26"/><path class="cls-3" d="M5.74,52.94a2.5,2.5,0,1,1-2.9,2A2.5,2.5,0,0,1,5.74,52.94Z"/><line class="cls-2" x1="18.78" x2="26.35" y1="38.65" y2="43.52"/><path class="cls-3" d="M14.33,33.53a2.5,2.5,0,1,1-3.45.75A2.51,2.51,0,0,1,14.33,33.53Z"/><line class="cls-2" x1="90.94" x2="86.06" y1="21.13" y2="28.7"/><circle class="cls-3" cx="94.84" cy="14.79" r="2.5" transform="translate(-0.21 1.4) rotate(-0.85)"/><line class="cls-2" x1="105.59" x2="98.18" y1="35.66" y2="40.78"/><path class="cls-3" d="M110.58,30.09a2.5,2.5,0,1,0,3.48.63A2.5,2.5,0,0,0,110.58,30.09Z"/><line class="cls-2" x1="35.26" x2="40.13" y1="108.67" y2="101.11"/><circle class="cls-3" cx="32.03" cy="114.15" r="2.5" transform="translate(-0.29 0.08) rotate(-0.15)"/><line class="cls-2" x1="21.61" x2="29.01" y1="95.15" y2="90.03"/><path class="cls-3" d="M17.1,100.83a2.5,2.5,0,1,0-3.48-.63A2.48,2.48,0,0,0,17.1,100.83Z"/><line class="cls-2" x1="12.96" x2="21.75" y1="76.15" y2="74.25"/><path class="cls-3" d="M7,79.4a2.5,2.5,0,1,0-3-1.92A2.52,2.52,0,0,0,7,79.4Z"/></g></svg>